<svg xmlns="http://www.w3.org/2000/svg" xmlns:xlink="http://www.w3.org/1999/xlink" viewBox="0 0 739.64 357.62"><defs><style>.cls-1{fill:url(#linear-gradient);}.cls-2{fill:url(#linear-gradient-2);}.cls-3{fill:url(#linear-gradient-3);}.cls-4{fill:url(#linear-gradient-4);}.cls-5{fill:url(#linear-gradient-5);}.cls-6{fill:url(#linear-gradient-6);}.cls-7{fill:url(#linear-gradient-7);}.cls-8{fill:url(#linear-gradient-8);}.cls-9{fill:url(#linear-gradient-9);}.cls-10{fill:url(#linear-gradient-10);}.cls-11{fill:#eaeaea;}
.rotate{
    animation-name: ckw;
    animation-duration: 10s;
    animation-iteration-count: infinite;
    animation-timing-function: linear;

     transform-box: fill-box;
  transform-origin: center;

}

@keyframes ckw {
    0% {
        transform: rotateZ(0deg);
    }
    100% {
        transform: rotateZ(360deg);
    }
}
</style><linearGradient id="linear-gradient" x1="197.81" y1="133.47" x2="307.06" y2="133.47" gradientUnits="userSpaceOnUse"><stop offset="0" stop-color="#ff9b48"/><stop offset="0.28" stop-color="#fe9846"/><stop offset="0.51" stop-color="#fc8e41"/><stop offset="0.73" stop-color="#f87d37"/><stop offset="0.93" stop-color="#f3652a"/><stop offset="1" stop-color="#f15a24"/></linearGradient><linearGradient id="linear-gradient-2" x1="260.46" y1="18.87" x2="285.25" y2="18.87" xlink:href="#linear-gradient"/><linearGradient id="linear-gradient-3" x1="171.71" y1="188.34" x2="267.41" y2="188.34" xlink:href="#linear-gradient"/><linearGradient id="linear-gradient-4" x1="168.06" y1="199.67" x2="205.88" y2="199.67" xlink:href="#linear-gradient"/><linearGradient id="linear-gradient-5" x1="165.34" y1="150.66" x2="210.02" y2="150.66" xlink:href="#linear-gradient"/><linearGradient id="linear-gradient-6" x1="307.06" y1="162.02" x2="337" y2="162.02" xlink:href="#linear-gradient"/><linearGradient id="linear-gradient-7" x1="314.99" y1="221.8" x2="427.41" y2="221.8" xlink:href="#linear-gradient"/><linearGradient id="linear-gradient-8" x1="308.25" y1="329.07" x2="421.46" y2="329.07" xlink:href="#linear-gradient"/><linearGradient id="linear-gradient-9" x1="170.38" y1="26.97" x2="297.8" y2="26.97" xlink:href="#linear-gradient"/><linearGradient id="linear-gradient-10" x1="317.37" y1="115.83" x2="623.5" y2="115.83" xlink:href="#linear-gradient"/></defs><g id="Layer_2" data-name="Layer 2"><g id="Layer_1-2" data-name="Layer 1"><polygon class="cls-1" points="224.57 51.29 301.5 43.95 307.06 214.27 272.75 222.99 197.81 129.41 224.57 51.29"/><polygon class="cls-2" points="260.46 9.05 285.05 21.35 285.25 28.68 260.46 9.05"/><polygon class="cls-3" points="171.71 165.25 212.19 153.8 267.41 222.87 244.24 218.66 171.71 165.25"/><polygon class="cls-4" points="168.06 167.93 205.88 195.1 182.94 231.41 168.06 167.93"/><polygon class="cls-5" points="169.2 161.55 210.02 151.37 201.12 139.78 165.34 148.09 169.2 161.55"/><polygon class="cls-6" points="307.06 110.97 311.22 110.37 337 207.13 310.82 213.68 307.06 110.97"/><polygon class="cls-7" points="314.99 112.16 427.41 190.48 421.86 331.45 355.04 258.88 314.99 112.16"/><polygon class="cls-8" points="308.25 357.62 388.15 300.52 421.46 336.21 308.25 357.62"/><path class="cls-9" d="M242.29,0,170.38,35.43l.53,18.5L297.8,41.24Zm-1.78,8.47,19.95,14.78L188.74,35.56Z"/><path class="cls-10" d="M317.37,109l111,77.72L623.5,44.94ZM468.85,89.77l3.72-.87L584.11,62.45l-78.73,52.68Z"/><path class="cls-11" d="M84.21,211.89c0-1.11-.2.56-.61,5q-.84,8.45-1.29,21.62-.61,14.93-.61,34,0,31.46,1.75,44.77.15,1.46.15,1.83,0,.84-1.14,1-2.74.38-20.18.38-4.11,0-4.72-1.6l-.3-5.79a2.39,2.39,0,0,0-.61-1.22,4.83,4.83,0,0,0-1.14.92q-8.23,8.07-20.56,8.07-16.07,0-25.74-11.27Q0,298.84,0,282.47q0-16.59,9.06-27.33,9.6-11.41,25.89-11.42,11.49,0,17.89,7.31c.71.81,1.22,1.22,1.52,1.22q.69,0,.69-2,0-5.86-.31-17.51t-.3-17.44c0-1.47.4-2.31,1.22-2.51q4.88-.23,13.4-.92Q84.29,210,82.53,210C83.65,210,84.21,210.63,84.21,211.89Zm-28.7,70a15.07,15.07,0,0,0-4.19-10.55,13.29,13.29,0,0,0-10.13-4.53,12.18,12.18,0,0,0-9.94,4.53,16.64,16.64,0,0,0-3.69,10.85,15.31,15.31,0,0,0,3.73,10.43,12.27,12.27,0,0,0,9.9,4.57,13.15,13.15,0,0,0,10.2-4.57A15.52,15.52,0,0,0,55.51,281.87Z"/><path class="cls-11" d="M170.25,265.65q0,14.78-.92,18-1.14,3.81-16.67,27.56-2.44,3.74-12.56,17.28-11.21,14.93-12.72,15.76-1.83,1.14-23.37,1.15c-2.19,0-3.66-.26-4.42-.77q-1-3.12-2.51-7.38-1.23-2.67-2.44-5.41-1.76-4-1.75-5.25c0-1,.43-1.45,1.29-1.45q21.16,0,21.17-9.67,0-.82-10.35-15.15-10.74-14.69-11.81-18.58-.6-2.2-.61-15.76c0-1.82,0-4.58.16-8.26s.15-6.43.15-8.26c0-1.32.84-2,2.51-2q3.88,0,11.77.23t11.76.23c1.06,0,1.6.79,1.6,2.36q0,2.13-.23,6.43t-.23,6.44q0,9.58.31,13,.23,2.65,4.56,9.89,4.57,7.54,6.63,7.54,1.74,0,5.94-7.46,3.88-7.08,4.18-9.52a128.4,128.4,0,0,0,.77-14.54q0-2.06-.39-6.24t-.38-6.32c0-1,.54-1.45,1.6-1.45q3.89,0,11.61-.3t11.62-.31a2.63,2.63,0,0,1,2.66,2Q170.24,252.93,170.25,265.65Z"/><path class="cls-11" d="M255.06,317.73a2.18,2.18,0,0,1-2.13,2.36q-2.13.3-11.11.3-9.6,0-11.88-.45c-1.52-.31-2.29-1.35-2.29-3.13,0-2.38.08-6,.23-10.81s.23-8.45.23-10.89c0-1.87-.05-4.68-.15-8.41s-.15-6.54-.15-8.41q0-10.44-9.06-10.43-3,0-6.93,2.59c-2.85,1.92-4.27,3.83-4.27,5.71v41.11a2.49,2.49,0,0,1-2.36,2.82q-2.66.3-10.88.3a90.16,90.16,0,0,1-11.58-.45c-1.57-.26-2.36-1.09-2.36-2.52q0-5.94.08-17.89t.07-18q0-19-3-29.77a5,5,0,0,1-.16-1.14,1.68,1.68,0,0,1,1.15-1.68q4.78-.53,12.79-1.67,12.1-2.36,13.63-2.36c.55,0,1,1.71,1.29,5.14s.73,5.14,1.29,5.14q-.84,0,8.19-5.29t15.8-5.3q9.66,0,16.14,4.57,7.23,5.25,7.23,14.62v24.29q0,5,.08,14.81T255.06,317.73Z"/><path class="cls-11" d="M527.38,301.42a5.59,5.59,0,0,1-1.53,3.08q-13.46,16-35.74,16-22.82,0-37-15.57-13.81-15-13.81-38,0-22.23,13.52-37.72Q466.93,213,488.72,213q23.67,0,37.13,14.55a4.57,4.57,0,0,1,1.46,2.85q0,1.38-5.08,10.3t-6.4,10a2,2,0,0,1-1.46.58q-.36,0-3.65-2.92a38.38,38.38,0,0,0-7.75-5.48A26.23,26.23,0,0,0,491,240a20.89,20.89,0,0,0-17.17,8q-5.93,7.45-5.92,18.42t5.92,18.64A20.71,20.71,0,0,0,491,293.24,27.21,27.21,0,0,0,503,290.46a36.76,36.76,0,0,0,7.6-5.12c2.15-1.85,3.34-2.77,3.59-2.77a2,2,0,0,1,1.46.8q1.17,1.32,6.36,9.14Q527.38,300.63,527.38,301.42Z"/><path class="cls-11" d="M622.4,317.21c0,.34-.49.59-1.46.73q-2.79.45-14,.44a121.79,121.79,0,0,1-13-.44,7.84,7.84,0,0,1-1.83-.36,3.34,3.34,0,0,1-1-1.46c-.73-1.9-1.81-4.73-3.22-8.48q-2.85-7.31-8.92-21.57c-.87-1.9-2.9-2.94-6.06-3.14q2.19.15-7.53.15c-.73,0-1.1,1.24-1.1,3.73q0,5,.91,14.84t.92,14.83c0,.83-.22,1.32-.66,1.46l-2,.15q-4.32.29-13.45.29-10.46,0-12.57-.44c-1.42-.29-2.12-1-2.12-2.26q0-8,.76-24.27t.77-24.34q0-30.91-1.39-48.24l-.07-1c-.05-.83.72-1.39,2.3-1.68s9-.59,22.33-.88q13.53-.28,21.56-.29,16.66,0,27.19,7.52Q620.64,231,620.65,247q0,10.68-3.07,17t-11.33,12.36c-1.12.77-1.68,1.51-1.68,2.19q0-.07,8.91,18.34T622.4,317.21Zm-30.7-65.56q0-8.93-5.84-12.35c-3-1.76-7.75-2.63-14.19-2.63-4.63,0-7.09.7-7.38,2.12q-.43,2.47-.44,14.32c0,1.12,0,2.78.08,5s.07,3.83.07,4.9c0,.24.78.49,2.34.73a63.86,63.86,0,0,0,9.36.66Q591.69,264.37,591.7,251.65Z"/><path class="cls-11" d="M739.64,315.68c0,1.51-.71,2.26-2.12,2.26H711.65c-1.42,0-2.12-.85-2.12-2.55q0-7.39.55-22.15t.55-22.15c0-1.41-.23-2.17-.66-2.27q-.81.45-9.8,22.59-5.26,13-10.52,25.95a3.08,3.08,0,0,1-1.83,2,29.06,29.06,0,0,1-2.93.07c-2.53,0-4-.48-4.53-1.46q-3.95-8-10.38-23.39-6.87-16.21-10.3-23.46a2.32,2.32,0,0,0-.66-.8,3.48,3.48,0,0,0-.51,2.12q0,7.15.36,21.49t.37,21.49c0,1.7-.68,2.55-2,2.55H632.78c-1,0-1.57-.15-1.79-.47a3,3,0,0,1-.33-1.65q0-8,.77-23.93T632.2,268q0-8.47-.74-31.8-.06-6.06-.65-18.05l-.08-1.24c-.05-1,1-1.46,3.07-1.46q4,0,12.06-.26t12.07-.25c.53,0,1.28,1,2.26,3.06l21.34,46.86c1.51,3.16,2.78,4.75,3.81,4.75q.79,0,3.43-5.48,7.38-15.36,21.86-46.27,1.23-2.85,2.7-2.85,2.11,0,6.39.22c2.85.14,5,.22,6.47.22,1.22,0,3.08-.12,5.59-.37s4.38-.36,5.6-.36c1.46,0,2.19.58,2.19,1.75q0,8.63-.62,25.76T738.33,268q0,8,.65,23.9T739.64,315.68Z"/><path class="cls-11 rotate" d="M330.17,255.37Q319.51,244.6,302.3,244.6q-17.66,0-28,11t-10.36,28.67q0,16.74,10.81,27.41t27.56,10.66q17.28,0,27.91-10.81t10.62-28.18Q340.83,266.15,330.17,255.37ZM324.65,292l-3.74,6.47a.52.52,0,0,1-.6.21l-4.93-1.56a1.67,1.67,0,0,0-1.58.3,17.21,17.21,0,0,1-5,2.9,1.7,1.7,0,0,0-1.06,1.21l-1.14,5.08a.5.5,0,0,1-.49.39h-7.46a.5.5,0,0,1-.49-.4L297,301.55a1.68,1.68,0,0,0-1.06-1.21,17.08,17.08,0,0,1-5-2.9,1.67,1.67,0,0,0-1.07-.38,1.42,1.42,0,0,0-.5.08l-4.94,1.56a.53.53,0,0,1-.61-.23L280.13,292a.54.54,0,0,1,.08-.66l3.8-3.49a1.67,1.67,0,0,0,.52-1.49,21.09,21.09,0,0,1-.22-2.93,21.34,21.34,0,0,1,.22-2.94,1.64,1.64,0,0,0-.52-1.48l-3.78-3.48a.54.54,0,0,1-.12-.65l3.74-6.47a.53.53,0,0,1,.6-.21l4.94,1.56a1.66,1.66,0,0,0,1.57-.31,17.53,17.53,0,0,1,5-2.9,1.68,1.68,0,0,0,1.06-1.21l1.14-5.07a.51.51,0,0,1,.49-.4h7.46a.52.52,0,0,1,.49.4l1.14,5.07a1.68,1.68,0,0,0,1.06,1.21,17.08,17.08,0,0,1,5,2.9,1.7,1.7,0,0,0,1.58.31l4.93-1.56a.52.52,0,0,1,.61.22l3.72,6.43a.55.55,0,0,1-.09.66l-3.8,3.49a1.7,1.7,0,0,0-.52,1.49,19.69,19.69,0,0,1,0,5.87,1.7,1.7,0,0,0,.52,1.49l3.79,3.48A.55.55,0,0,1,324.65,292Z"/><circle class="cls-11" cx="302.38" cy="283.47" r="6.72"/></g></g></svg>